<?xml version="1.0" encoding="UTF-8"?>
<svg id="Layer_1" data-name="Layer 1" xmlns="http://www.w3.org/2000/svg" viewBox="0 0 847.73 309.99">
  <defs>
    <style>
      .cls-1 {
        fill: #f5f5f5;
      }
    </style>
  </defs>
  <path class="cls-1" d="M406.92,150.81h-.02c-4.69-2.25-10.67-3.4-17.78-3.4h-20.23c-5.39,0-9.7-1.5-12.78-4.39l-.15-.15c-3.01-3.17-4.46-6.74-4.46-10.91s1.5-8.02,4.46-11.14c2.98-3.17,7.07-4.77,12.11-4.77h49.78v-10.81h-51.63c-5.61,0-10.43,1.3-14.74,3.95-4.31,2.52-7.57,5.77-9.95,9.91-2.38,4.15-3.56,8.54-3.56,13.46,0,5.77,1.23,10.66,3.68,14.56,2.63,3.97,6.12,6.94,10.65,9.11,4.71,2,10.3,3.02,16.59,3.02h21.28c3.58,0,6.77.82,9.47,2.45,2.76,1.47,4.81,3.57,6.17,6.24,1.33,2.5,1.95,5.04,1.95,8.02s-.73,5.97-2.18,8.69c-1.45,2.75-3.68,5.04-6.59,6.84-2.73,1.62-6.07,2.42-9.85,2.42h-47.9v10.79h50.18c6.01,0,11.08-1.35,15.51-4.12,4.61-2.8,8.07-6.29,10.6-10.74,2.56-4.57,3.78-9.31,3.78-14.51,0-6.04-1.28-11.21-3.76-15.31-2.33-4.04-5.82-7.07-10.63-9.21Z"/>
  <path class="cls-1" d="M525.77,109.81v-.03h0c-7.77-4.66-16.89-7.03-27.09-7.03s-19.3,2.37-27.12,7.04c-7.8,4.52-14.06,10.84-18.62,18.78-4.56,7.77-6.87,16.66-6.87,26.4s2.31,18.73,6.87,26.62c4.56,7.79,10.83,14.11,18.62,18.78,7.44,4.35,16.14,6.64,25.82,6.82h1.3c10.2.02,19.3-2.25,27.09-6.79,7.95-4.67,14.21-10.99,18.65-18.75,4.56-7.92,6.87-16.88,6.87-26.64s-2.31-18.88-6.87-26.65c-4.44-7.77-10.7-14.01-18.65-18.55ZM537.52,155.02v-.02c0,7.69-1.63,14.76-4.86,21.03-3.23,6.17-7.79,11.14-13.53,14.81-5.72,3.65-12.81,5.57-20.48,5.57s-14.54-1.87-20.48-5.57c-5.74-3.67-10.3-8.66-13.56-14.83-3.21-6.24-4.86-13.31-4.86-21s1.63-14.68,4.86-20.8c3.23-6.32,7.82-11.39,13.59-15.06,5.91-3.7,12.81-5.54,20.45-5.54s14.66,1.87,20.48,5.57c5.77,3.7,10.33,8.74,13.56,15.01,3.21,6.14,4.86,13.13,4.86,20.83h-.03Z"/>
  <path class="cls-1" d="M651.65,108.36l-.02.03h.01c-6.87-3.71-14.96-5.61-24.09-5.61s-17.12,1.9-24.14,5.67c-7.04,3.62-12.43,8.62-16.47,15.21-3.86,6.54-5.82,14.31-5.82,23.1v57.98h13.54v-57.78c0-6.79,1.53-12.76,4.54-17.71,3.11-5.04,7.22-8.96,12.21-11.69,5.06-2.67,10.48-4.02,16.14-4.02s11.03,1.35,15.94,4.02c5.09,2.7,9.2,6.62,12.23,11.71,3.13,4.94,4.71,10.86,4.71,17.65v57.78h13.56v-57.98c0-8.76-2.03-16.56-6.02-23.1-3.91-6.62-9.25-11.59-16.32-15.26Z"/>
  <rect class="cls-1" x="709.58" y="105.23" width="13.74" height="99.49"/>
  <path class="cls-1" d="M806.46,116.04h10.28v-10.81h-9.65c-10.35,0-19.73,2.25-27.8,6.67-8.07,4.4-14.54,10.46-19.25,17.98-4.66,7.34-7.02,15.78-7.02,25.1s2.36,17.8,7.02,25.3c4.69,7.39,11.18,13.36,19.25,17.78,7.07,3.84,20.91,6.67,27.1,6.67h10.35v-10.81h-10.28c-7.47,0-14.34-1.72-20.4-5.12-5.87-3.52-10.65-8.29-14.19-14.16-3.38-5.89-5.11-12.51-5.11-19.68s1.73-13.81,5.14-19.7c3.51-5.84,8.3-10.54,14.19-13.91h0c6.04-3.51,12.87-5.31,20.37-5.31Z"/>
  <polygon class="cls-1" points="786.09 121.38 786.09 121.35 786.08 121.36 786.09 121.38"/>
  <path class="cls-1" d="M180.14,185.07l.03-.02s-.03.02-.05.03c.01,0,.02,0,.03,0h0Z"/>
  <path class="cls-1" d="M180.12,185.08c-46.81,14.06-85.52,34.57-109.77,58.59l-1.07,1.07c6.45,6.1,13.52,11.56,21.16,16.2l1.64-2.01c6.62-8.09,13.72-15.9,21.11-23.26,19.83-19.76,42.51-36.86,66.93-50.59Z"/>
  <path class="cls-1" d="M185.53,164.24H31c1.87,25.07,11.18,48.06,25.79,66.76l.67-.67c15.01-14.81,34.55-28.27,58.12-40,20.66-10.29,44.38-19.12,69.95-26.09Z"/>
  <path class="cls-1" d="M126.29,61.2c41.89,41.74,94.61,69.34,152.44,79.81-6.97-61.88-59.64-110.01-123.64-110.01-16.9,0-33.01,3.37-47.72,9.45,5.97,7.19,12.35,14.19,18.92,20.76h0Z"/>
  <path class="cls-1" d="M70.35,66.31c24.25,24.06,62.98,44.54,109.8,58.63-24.44-13.76-47.14-30.85-66.98-50.62-7.37-7.34-14.46-15.15-21.11-23.26l-1.64-2.01c-7.64,4.64-14.71,10.09-21.13,16.19l1.07,1.07h-.01Z"/>
  <path class="cls-1" d="M126.29,248.78c-6.6,6.57-12.97,13.57-18.92,20.76,14.69,6.08,30.82,9.45,47.72,9.45,64,0,116.67-48.14,123.66-110.04-57.82,10.47-110.54,38.07-152.44,79.81l-.02.02Z"/>
  <path class="cls-1" d="M115.55,119.62v.02c-23.55-11.73-43.08-25.2-58.09-39.99l-.67-.67c-14.61,18.7-23.92,41.69-25.79,66.76h154.5c-25.56-6.97-49.26-15.8-69.95-26.12Z"/>
</svg>